<svg data-v-fde0c5aa="" xmlns="http://www.w3.org/2000/svg" viewBox="0 0 300 300" class="iconLeft"><!----><defs data-v-fde0c5aa=""><!----></defs><rect data-v-fde0c5aa="" fill="#EBF2F2" x="0" y="0" width="300px" height="300px" class="logo-background-square"></rect><defs data-v-fde0c5aa=""><!----></defs><g data-v-fde0c5aa="" id="a2b9887e-b2a7-44a5-9172-7248c17f68ea" fill="#0F2020" transform="matrix(1.3945967857198274,0,0,1.3945967857198274,79.76231056902513,132.73489229818517)"><path d="M7 16.19L3.94 16.19L3.94 16.19Q2.95 16.19 2.35 16.01L2.35 16.01L2.35 16.01Q1.75 15.83 1.42 15.42L1.42 15.42L1.42 15.42Q1.09 15.01 0.98 14.34L0.98 14.34L0.98 14.34Q0.88 13.67 0.88 12.69L0.88 12.69L0.88 12.25L2.19 12.25L2.19 12.69L2.19 12.69Q2.19 13.51 2.28 13.99L2.28 13.99L2.28 13.99Q2.37 14.47 2.57 14.72L2.57 14.72L2.57 14.72Q2.78 14.98 3.11 15.05L3.11 15.05L3.11 15.05Q3.45 15.12 3.94 15.12L3.94 15.12L7 15.12L7 15.12Q7.66 15.12 8.08 15.00L8.08 15.00L8.08 15.00Q8.50 14.88 8.75 14.64L8.75 14.64L8.75 14.64Q9.00 14.39 9.09 14.01L9.09 14.01L9.09 14.01Q9.19 13.64 9.19 13.13L9.19 13.13L9.19 5.69L10.50 5.69L10.50 13.13L10.50 13.13Q10.50 13.95 10.32 14.53L10.32 14.53L10.32 14.53Q10.14 15.11 9.73 15.48L9.73 15.48L9.73 15.48Q9.32 15.85 8.65 16.02L8.65 16.02L8.65 16.02Q7.98 16.19 7 16.19L7 16.19ZM12.38 12.20L12.38 12.20L12.38 12.20Q12.38 10.99 12.64 10.19L12.64 10.19L12.64 10.19Q12.90 9.40 13.47 8.93L13.47 8.93L13.47 8.93Q14.05 8.47 14.96 8.28L14.96 8.28L14.96 8.28Q15.88 8.09 17.19 8.09L17.19 8.09L17.19 8.09Q18.50 8.09 19.42 8.28L19.42 8.28L19.42 8.28Q20.34 8.47 20.91 8.93L20.91 8.93L20.91 8.93Q21.49 9.40 21.75 10.19L21.75 10.19L21.75 10.19Q22.00 10.99 22.00 12.20L22.00 12.20L22.00 12.20Q22.00 13.41 21.75 14.21L21.75 14.21L21.75 14.21Q21.49 15.00 20.91 15.48L20.91 15.48L20.91 15.48Q20.34 15.95 19.42 16.14L19.42 16.14L19.42 16.14Q18.50 16.34 17.19 16.34L17.19 16.34L17.19 16.34Q15.88 16.34 14.96 16.14L14.96 16.14L14.96 16.14Q14.05 15.95 13.47 15.48L13.47 15.48L13.47 15.48Q12.90 15.00 12.64 14.21L12.64 14.21L12.64 14.21Q12.38 13.41 12.38 12.20ZM13.69 12.20L13.69 12.20L13.69 12.20Q13.69 12.85 13.74 13.34L13.74 13.34L13.74 13.34Q13.79 13.82 13.92 14.17L13.92 14.17L13.92 14.17Q14.05 14.52 14.29 14.74L14.29 14.74L14.29 14.74Q14.53 14.96 14.92 15.09L14.92 15.09L14.92 15.09Q15.31 15.22 15.87 15.26L15.87 15.26L15.87 15.26Q16.43 15.31 17.19 15.31L17.19 15.31L17.19 15.31Q17.85 15.31 18.36 15.28L18.36 15.28L18.36 15.28Q18.88 15.25 19.27 15.14L19.27 15.14L19.27 15.14Q19.65 15.03 19.93 14.83L19.93 14.83L19.93 14.83Q20.20 14.63 20.37 14.28L20.37 14.28L20.37 14.28Q20.54 13.93 20.61 13.42L20.61 13.42L20.61 13.42Q20.69 12.91 20.69 12.20L20.69 12.20L20.69 12.20Q20.69 11.49 20.61 11.00L20.61 11.00L20.61 11.00Q20.54 10.50 20.37 10.17L20.37 10.17L20.37 10.17Q20.20 9.83 19.93 9.64L19.93 9.64L19.93 9.64Q19.65 9.44 19.27 9.34L19.27 9.34L19.27 9.34Q18.88 9.24 18.36 9.21L18.36 9.21L18.36 9.21Q17.85 9.19 17.19 9.19L17.19 9.19L17.19 9.19Q16.54 9.19 16.02 9.21L16.02 9.21L16.02 9.21Q15.50 9.24 15.12 9.34L15.12 9.34L15.12 9.34Q14.73 9.44 14.46 9.64L14.46 9.64L14.46 9.64Q14.18 9.83 14.02 10.17L14.02 10.17L14.02 10.17Q13.85 10.50 13.77 11.00L13.77 11.00L13.77 11.00Q13.69 11.49 13.69 12.20ZM28.35 16.34L28.35 16.34L28.35 16.34Q27.41 16.34 26.78 16.21L26.78 16.21L26.78 16.21Q26.15 16.08 25.76 15.94L25.76 15.94L25.76 15.94Q25.36 15.79 25.16 15.47L25.16 15.47L25.16 15.47Q24.95 15.16 24.85 14.98L24.85 14.98L24.85 16.19L23.54 16.19L23.54 5.69L24.85 5.69L24.85 9.06L24.85 9.06Q24.94 8.91 25.15 8.75L25.15 8.75L25.15 8.75Q25.35 8.58 25.75 8.43L25.75 8.43L25.75 8.43Q26.15 8.29 26.78 8.19L26.78 8.19L26.78 8.19Q27.41 8.09 28.35 8.09L28.35 8.09L28.35 8.09Q29.66 8.09 30.58 8.29L30.58 8.29L30.58 8.29Q31.49 8.49 32.07 8.97L32.07 8.97L32.07 8.97Q32.64 9.45 32.90 10.25L32.90 10.25L32.90 10.25Q33.16 11.05 33.16 12.26L33.16 12.26L33.16 12.26Q33.16 13.45 32.90 14.24L32.90 14.24L32.90 14.24Q32.64 15.03 32.07 15.49L32.07 15.49L32.07 15.49Q31.49 15.96 30.58 16.15L30.58 16.15L30.58 16.15Q29.66 16.34 28.35 16.34ZM28.35 15.31L28.35 15.31L28.35 15.31Q29.11 15.31 29.67 15.26L29.67 15.26L29.67 15.26Q30.23 15.22 30.62 15.09L30.62 15.09L30.62 15.09Q31.01 14.97 31.25 14.75L31.25 14.75L31.25 14.75Q31.49 14.53 31.63 14.19L31.63 14.19L31.63 14.19Q31.76 13.86 31.80 13.38L31.80 13.38L31.80 13.38Q31.85 12.91 31.85 12.26L31.85 12.26L31.85 12.26Q31.85 11.62 31.80 11.14L31.80 11.14L31.80 11.14Q31.76 10.66 31.63 10.33L31.63 10.33L31.63 10.33Q31.49 9.99 31.25 9.77L31.25 9.77L31.25 9.77Q31.01 9.54 30.62 9.42L30.62 9.42L30.62 9.42Q30.23 9.29 29.67 9.24L29.67 9.24L29.67 9.24Q29.11 9.19 28.35 9.19L28.35 9.19L28.35 9.19Q27.69 9.19 27.18 9.23L27.18 9.23L27.18 9.23Q26.67 9.26 26.28 9.37L26.28 9.37L26.28 9.37Q25.89 9.47 25.62 9.68L25.62 9.68L25.62 9.68Q25.35 9.88 25.18 10.23L25.18 10.23L25.18 10.23Q25.01 10.57 24.93 11.07L24.93 11.07L24.93 11.07Q24.85 11.58 24.85 12.28L24.85 12.28L24.85 12.28Q24.85 12.98 24.93 13.48L24.93 13.48L24.93 13.48Q25.01 13.97 25.18 14.31L25.18 14.31L25.18 14.31Q25.35 14.64 25.62 14.84L25.62 14.84L25.62 14.84Q25.89 15.05 26.28 15.15L26.28 15.15L26.28 15.15Q26.67 15.25 27.18 15.28L27.18 15.28L27.18 15.28Q27.69 15.31 28.35 15.31ZM39.50 6.78L39.50 16.19L38.19 16.19L38.19 5.69L40.50 5.69L50.12 14.88L50.12 5.69L51.43 5.69L51.43 16.19L49.68 16.19L39.50 6.78ZM61.46 16.19L61.46 15.11L61.46 15.11Q61.44 15.19 61.15 15.52L61.15 15.52L61.15 15.52Q60.95 15.76 60.61 15.95L60.61 15.95L60.61 15.95Q60.27 16.14 59.69 16.25L59.69 16.25L59.69 16.25Q59.12 16.35 58.19 16.35L58.19 16.35L58.19 16.35Q56.96 16.35 56.08 16.23L56.08 16.23L56.08 16.23Q55.21 16.10 54.65 15.84L54.65 15.84L54.65 15.84Q54.10 15.57 53.84 15.16L53.84 15.16L53.84 15.16Q53.59 14.75 53.59 14.18L53.59 14.18L53.59 14.18Q53.59 13.59 53.73 13.18L53.73 13.18L53.73 13.18Q53.87 12.76 54.14 12.48L54.14 12.48L54.14 12.48Q54.41 12.20 54.79 12.04L54.79 12.04L54.79 12.04Q55.17 11.89 55.66 11.81L55.66 11.81L55.66 11.81Q56.15 11.72 56.73 11.70L56.73 11.70L56.73 11.70Q57.31 11.68 57.97 11.68L57.97 11.68L57.97 11.68Q58.91 11.68 59.53 11.76L59.53 11.76L59.53 11.76Q60.16 11.84 60.56 11.96L60.56 11.96L60.56 11.96Q60.96 12.08 61.17 12.22L61.17 12.22L61.17 12.22Q61.37 12.35 61.46 12.47L61.46 12.47L61.46 12.47Q61.46 11.70 61.40 11.16L61.40 11.16L61.40 11.16Q61.33 10.62 61.19 10.26L61.19 10.26L61.19 10.26Q61.04 9.90 60.81 9.68L60.81 9.68L60.81 9.68Q60.57 9.47 60.23 9.36L60.23 9.36L60.23 9.36Q59.90 9.25 59.45 9.22L59.45 9.22L59.45 9.22Q58.99 9.19 58.41 9.19L58.41 9.19L58.41 9.19Q57.51 9.19 56.92 9.23L56.92 9.23L56.92 9.23Q56.32 9.28 55.97 9.41L55.97 9.41L55.97 9.41Q55.62 9.54 55.48 9.77L55.48 9.77L55.48 9.77Q55.34 9.99 55.34 10.36L55.34 10.36L54.02 10.36L54.02 10.36Q54.02 9.74 54.25 9.31L54.25 9.31L54.25 9.31Q54.47 8.88 54.98 8.61L54.98 8.61L54.98 8.61Q55.50 8.34 56.34 8.22L56.34 8.22L56.34 8.22Q57.18 8.09 58.41 8.09L58.41 8.09L58.41 8.09Q59.62 8.09 60.45 8.29L60.45 8.29L60.45 8.29Q61.28 8.49 61.80 8.99L61.80 8.99L61.80 8.99Q62.32 9.49 62.55 10.33L62.55 10.33L62.55 10.33Q62.77 11.18 62.77 12.47L62.77 12.47L62.77 16.19L61.46 16.19ZM58.41 15.31L58.41 15.31L58.41 15.31Q59.28 15.31 59.87 15.23L59.87 15.23L59.87 15.23Q60.45 15.15 60.81 14.98L60.81 14.98L60.81 14.98Q61.16 14.82 61.31 14.57L61.31 14.57L61.31 14.57Q61.46 14.33 61.46 14L61.46 14L61.46 14Q61.46 13.67 61.29 13.44L61.29 13.44L61.29 13.44Q61.11 13.21 60.71 13.07L60.71 13.07L60.71 13.07Q60.30 12.93 59.63 12.86L59.63 12.86L59.63 12.86Q58.96 12.80 57.98 12.80L57.98 12.80L57.98 12.80Q56.99 12.80 56.39 12.83L56.39 12.83L56.39 12.83Q55.78 12.87 55.45 12.99L55.45 12.99L55.45 12.99Q55.13 13.11 55.01 13.35L55.01 13.35L55.01 13.35Q54.90 13.59 54.90 14L54.90 14L54.90 14Q54.90 14.41 55.02 14.67L55.02 14.67L55.02 14.67Q55.14 14.92 55.51 15.07L55.51 15.07L55.51 15.07Q55.88 15.21 56.57 15.26L56.57 15.26L56.57 15.26Q57.26 15.31 58.41 15.31ZM64.09 8.31L68.24 16.19L69.99 16.19L74.15 8.31L72.62 8.31L69.12 15.31L65.62 8.31L64.09 8.31ZM75.90 16.19L75.90 8.31L77.21 8.31L77.21 16.19L75.90 16.19ZM77.21 5.69L77.21 7L75.90 7L75.90 5.69L77.21 5.69ZM83.99 9.19L83.99 9.19L83.99 9.19Q83.23 9.19 82.67 9.24L82.67 9.24L82.67 9.24Q82.11 9.28 81.72 9.41L81.72 9.41L81.72 9.41Q81.33 9.53 81.09 9.75L81.09 9.75L81.09 9.75Q80.85 9.97 80.72 10.31L80.72 10.31L80.72 10.31Q80.58 10.65 80.54 11.13L80.54 11.13L80.54 11.13Q80.49 11.61 80.49 12.26L80.49 12.26L80.49 12.26Q80.49 12.91 80.54 13.38L80.54 13.38L80.54 13.38Q80.58 13.86 80.72 14.19L80.72 14.19L80.72 14.19Q80.85 14.53 81.09 14.75L81.09 14.75L81.09 14.75Q81.33 14.97 81.72 15.09L81.72 15.09L81.72 15.09Q82.11 15.22 82.67 15.26L82.67 15.26L82.67 15.26Q83.23 15.31 83.99 15.31L83.99 15.31L83.99 15.31Q84.65 15.31 85.16 15.28L85.16 15.28L85.16 15.28Q85.67 15.25 86.06 15.15L86.06 15.15L86.06 15.15Q86.45 15.04 86.72 14.84L86.72 14.84L86.72 14.84Q86.99 14.64 87.17 14.30L87.17 14.30L87.17 14.30Q87.34 13.96 87.41 13.46L87.41 13.46L87.41 13.46Q87.49 12.95 87.49 12.24L87.49 12.24L87.49 12.24Q87.49 11.53 87.41 11.03L87.41 11.03L87.41 11.03Q87.34 10.52 87.17 10.18L87.17 10.18L87.17 10.18Q86.99 9.84 86.72 9.65L86.72 9.65L86.72 9.65Q86.45 9.45 86.06 9.34L86.06 9.34L86.06 9.34Q85.67 9.24 85.16 9.21L85.16 9.21L85.16 9.21Q84.65 9.19 83.99 9.19ZM88.81 8.31L88.81 15.09L88.81 15.09Q88.81 16.24 88.55 17.00L88.55 17.00L88.55 17.00Q88.29 17.76 87.71 18.23L87.71 18.23L87.71 18.23Q87.14 18.70 86.22 18.88L86.22 18.88L86.22 18.88Q85.31 19.07 83.99 19.07L83.99 19.07L83.99 19.07Q82.76 19.07 81.93 18.96L81.93 18.96L81.93 18.96Q81.09 18.85 80.58 18.61L80.58 18.61L80.58 18.61Q80.06 18.38 79.84 18.00L79.84 18.00L79.84 18.00Q79.62 17.63 79.62 17.10L79.62 17.10L80.93 17.10L80.93 17.10Q80.93 17.36 81.07 17.53L81.07 17.53L81.07 17.53Q81.21 17.71 81.56 17.80L81.56 17.80L81.56 17.80Q81.91 17.90 82.50 17.93L82.50 17.93L82.50 17.93Q83.09 17.97 83.99 17.97L83.99 17.97L83.99 17.97Q84.98 17.97 85.65 17.90L85.65 17.90L85.65 17.90Q86.32 17.83 86.73 17.56L86.73 17.56L86.73 17.56Q87.14 17.29 87.32 16.75L87.32 16.75L87.32 16.75Q87.49 16.21 87.49 15.31L87.49 15.31L87.49 15.31Q87.40 15.48 87.19 15.67L87.19 15.67L87.19 15.67Q86.98 15.86 86.58 16.02L86.58 16.02L86.58 16.02Q86.18 16.19 85.55 16.30L85.55 16.30L85.55 16.30Q84.92 16.41 83.99 16.41L83.99 16.41L83.99 16.41Q82.68 16.41 81.76 16.21L81.76 16.21L81.76 16.21Q80.85 16.02 80.27 15.54L80.27 15.54L80.27 15.54Q79.70 15.07 79.44 14.27L79.44 14.27L79.44 14.27Q79.18 13.47 79.18 12.26L79.18 12.26L79.18 12.26Q79.18 11.03 79.44 10.23L79.44 10.23L79.44 10.23Q79.70 9.42 80.27 8.95L80.27 8.95L80.27 8.95Q80.85 8.48 81.76 8.29L81.76 8.29L81.76 8.29Q82.68 8.09 83.99 8.09L83.99 8.09L83.99 8.09Q84.92 8.09 85.55 8.19L85.55 8.19L85.55 8.19Q86.18 8.29 86.58 8.43L86.58 8.43L86.58 8.43Q86.98 8.57 87.19 8.74L87.19 8.74L87.19 8.74Q87.40 8.91 87.49 9.04L87.49 9.04L87.49 8.31L88.81 8.31ZM98.40 16.19L98.40 15.11L98.40 15.11Q98.38 15.19 98.09 15.52L98.09 15.52L98.09 15.52Q97.88 15.76 97.54 15.95L97.54 15.95L97.54 15.95Q97.20 16.14 96.63 16.25L96.63 16.25L96.63 16.25Q96.06 16.35 95.13 16.35L95.13 16.35L95.13 16.35Q93.89 16.35 93.02 16.23L93.02 16.23L93.02 16.23Q92.14 16.10 91.59 15.84L91.59 15.84L91.59 15.84Q91.03 15.57 90.78 15.16L90.78 15.16L90.78 15.16Q90.52 14.75 90.52 14.18L90.52 14.18L90.52 14.18Q90.52 13.59 90.66 13.18L90.66 13.18L90.66 13.18Q90.80 12.76 91.07 12.48L91.07 12.48L91.07 12.48Q91.34 12.20 91.72 12.04L91.72 12.04L91.72 12.04Q92.11 11.89 92.60 11.81L92.60 11.81L92.60 11.81Q93.08 11.72 93.67 11.70L93.67 11.70L93.67 11.70Q94.25 11.68 94.90 11.68L94.90 11.68L94.90 11.68Q95.84 11.68 96.47 11.76L96.47 11.76L96.47 11.76Q97.10 11.84 97.50 11.96L97.50 11.96L97.50 11.96Q97.90 12.08 98.10 12.22L98.10 12.22L98.10 12.22Q98.31 12.35 98.40 12.47L98.40 12.47L98.40 12.47Q98.40 11.70 98.33 11.16L98.33 11.16L98.33 11.16Q98.27 10.62 98.12 10.26L98.12 10.26L98.12 10.26Q97.97 9.90 97.74 9.68L97.74 9.68L97.74 9.68Q97.51 9.47 97.17 9.36L97.17 9.36L97.17 9.36Q96.83 9.25 96.38 9.22L96.38 9.22L96.38 9.22Q95.93 9.19 95.35 9.19L95.35 9.19L95.35 9.19Q94.45 9.19 93.85 9.23L93.85 9.23L93.85 9.23Q93.26 9.28 92.91 9.41L92.91 9.41L92.91 9.41Q92.56 9.54 92.42 9.77L92.42 9.77L92.42 9.77Q92.27 9.99 92.27 10.36L92.27 10.36L90.96 10.36L90.96 10.36Q90.96 9.74 91.18 9.31L91.18 9.31L91.18 9.31Q91.40 8.88 91.92 8.61L91.92 8.61L91.92 8.61Q92.44 8.34 93.28 8.22L93.28 8.22L93.28 8.22Q94.12 8.09 95.35 8.09L95.35 8.09L95.35 8.09Q96.55 8.09 97.38 8.29L97.38 8.29L97.38 8.29Q98.22 8.49 98.73 8.99L98.73 8.99L98.73 8.99Q99.25 9.49 99.48 10.33L99.48 10.33L99.48 10.33Q99.71 11.18 99.71 12.47L99.71 12.47L99.71 16.19L98.40 16.19ZM95.35 15.31L95.35 15.31L95.35 15.31Q96.22 15.31 96.80 15.23L96.80 15.23L96.80 15.23Q97.38 15.15 97.74 14.98L97.74 14.98L97.74 14.98Q98.10 14.82 98.25 14.57L98.25 14.57L98.25 14.57Q98.40 14.33 98.40 14L98.40 14L98.40 14Q98.40 13.67 98.22 13.44L98.22 13.44L98.22 13.44Q98.05 13.21 97.64 13.07L97.64 13.07L97.64 13.07Q97.23 12.93 96.56 12.86L96.56 12.86L96.56 12.86Q95.89 12.80 94.91 12.80L94.91 12.80L94.91 12.80Q93.93 12.80 93.32 12.83L93.32 12.83L93.32 12.83Q92.72 12.87 92.39 12.99L92.39 12.99L92.39 12.99Q92.06 13.11 91.95 13.35L91.95 13.35L91.95 13.35Q91.83 13.59 91.83 14L91.83 14L91.83 14Q91.83 14.41 91.95 14.67L91.95 14.67L91.95 14.67Q92.07 14.92 92.44 15.07L92.44 15.07L92.44 15.07Q92.81 15.21 93.51 15.26L93.51 15.26L93.51 15.26Q94.20 15.31 95.35 15.31ZM108.02 12.69L109.12 12.69L109.12 12.69Q109.12 13.69 108.95 14.37L108.95 14.37L108.95 14.37Q108.79 15.04 108.40 15.44L108.40 15.44L108.40 15.44Q108.01 15.85 107.39 16.02L107.39 16.02L107.39 16.02Q106.76 16.19 105.83 16.19L105.83 16.19L105.83 16.19Q104.94 16.19 104.33 16.05L104.33 16.05L104.33 16.05Q103.72 15.91 103.35 15.59L103.35 15.59L103.35 15.59Q102.97 15.26 102.81 14.71L102.81 14.71L102.81 14.71Q102.64 14.16 102.64 13.34L102.64 13.34L102.64 9.39L101.02 9.39L101.02 8.31L102.64 8.31L102.64 6.16L103.95 6.16L103.95 8.31L108.90 8.31L108.90 9.39L103.95 9.39L103.95 13.34L103.95 13.34Q103.95 14 104.05 14.36L104.05 14.36L104.05 14.36Q104.15 14.71 104.37 14.88L104.37 14.88L104.37 14.88Q104.59 15.04 104.95 15.07L104.95 15.07L104.95 15.07Q105.31 15.09 105.83 15.09L105.83 15.09L105.83 15.09Q106.24 15.09 106.56 15.08L106.56 15.08L106.56 15.08Q106.89 15.07 107.13 14.99L107.13 14.99L107.13 14.99Q107.37 14.92 107.54 14.78L107.54 14.78L107.54 14.78Q107.71 14.63 107.82 14.36L107.82 14.36L107.82 14.36Q107.93 14.10 107.97 13.69L107.97 13.69L107.97 13.69Q108.02 13.28 108.02 12.69L108.02 12.69ZM110.21 12.20L110.21 12.20L110.21 12.20Q110.21 10.99 110.47 10.19L110.47 10.19L110.47 10.19Q110.73 9.40 111.30 8.93L111.30 8.93L111.30 8.93Q111.88 8.47 112.79 8.28L112.79 8.28L112.79 8.28Q113.71 8.09 115.02 8.09L115.02 8.09L115.02 8.09Q116.33 8.09 117.25 8.28L117.25 8.28L117.25 8.28Q118.17 8.47 118.74 8.93L118.74 8.93L118.74 8.93Q119.31 9.40 119.57 10.19L119.57 10.19L119.57 10.19Q119.83 10.99 119.83 12.20L119.83 12.20L119.83 12.20Q119.83 13.41 119.57 14.21L119.57 14.21L119.57 14.21Q119.31 15.00 118.74 15.48L118.74 15.48L118.74 15.48Q118.17 15.95 117.25 16.14L117.25 16.14L117.25 16.14Q116.33 16.34 115.02 16.34L115.02 16.34L115.02 16.34Q113.71 16.34 112.79 16.14L112.79 16.14L112.79 16.14Q111.88 15.95 111.30 15.48L111.30 15.48L111.30 15.48Q110.73 15.00 110.47 14.21L110.47 14.21L110.47 14.21Q110.21 13.41 110.21 12.20ZM111.52 12.20L111.52 12.20L111.52 12.20Q111.52 12.85 111.57 13.34L111.57 13.34L111.57 13.34Q111.62 13.82 111.75 14.17L111.75 14.17L111.75 14.17Q111.88 14.52 112.12 14.74L112.12 14.74L112.12 14.74Q112.36 14.96 112.75 15.09L112.75 15.09L112.75 15.09Q113.14 15.22 113.70 15.26L113.70 15.26L113.70 15.26Q114.26 15.31 115.02 15.31L115.02 15.31L115.02 15.31Q115.68 15.31 116.19 15.28L116.19 15.28L116.19 15.28Q116.71 15.25 117.10 15.14L117.10 15.14L117.10 15.14Q117.48 15.03 117.76 14.83L117.76 14.83L117.76 14.83Q118.03 14.63 118.20 14.28L118.20 14.28L118.20 14.28Q118.36 13.93 118.44 13.42L118.44 13.42L118.44 13.42Q118.52 12.91 118.52 12.20L118.52 12.20L118.52 12.20Q118.52 11.49 118.44 11.00L118.44 11.00L118.44 11.00Q118.36 10.50 118.20 10.17L118.20 10.17L118.20 10.17Q118.03 9.83 117.76 9.64L117.76 9.64L117.76 9.64Q117.48 9.44 117.10 9.34L117.10 9.34L117.10 9.34Q116.71 9.24 116.19 9.21L116.19 9.21L116.19 9.21Q115.68 9.19 115.02 9.19L115.02 9.19L115.02 9.19Q114.37 9.19 113.85 9.21L113.85 9.21L113.85 9.21Q113.33 9.24 112.95 9.34L112.95 9.34L112.95 9.34Q112.56 9.44 112.29 9.64L112.29 9.64L112.29 9.64Q112.01 9.83 111.85 10.17L111.85 10.17L111.85 10.17Q111.68 10.50 111.60 11.00L111.60 11.00L111.60 11.00Q111.52 11.49 111.52 12.20ZM129.24 10.88L128.15 10.88L128.15 10.88Q128.15 10.38 128.07 10.06L128.07 10.06L128.07 10.06Q128.00 9.73 127.74 9.54L127.74 9.54L127.74 9.54Q127.47 9.34 126.95 9.27L126.95 9.27L126.95 9.27Q126.42 9.19 125.52 9.19L125.52 9.19L125.52 9.19Q124.64 9.19 124.09 9.34L124.09 9.34L124.09 9.34Q123.53 9.50 123.22 9.78L123.22 9.78L123.22 9.78Q122.90 10.06 122.79 10.45L122.79 10.45L122.79 10.45Q122.68 10.83 122.68 11.31L122.68 11.31L122.68 16.19L121.37 16.19L121.37 8.31L122.68 8.31L122.68 9.56L122.68 9.56Q122.75 9.35 122.93 9.10L122.93 9.10L122.93 9.10Q123.12 8.84 123.49 8.62L123.49 8.62L123.49 8.62Q123.87 8.39 124.47 8.24L124.47 8.24L124.47 8.24Q125.06 8.09 125.96 8.09L125.96 8.09L125.96 8.09Q126.98 8.09 127.63 8.27L127.63 8.27L127.63 8.27Q128.27 8.46 128.63 8.81L128.63 8.81L128.63 8.81Q128.99 9.16 129.11 9.68L129.11 9.68L129.11 9.68Q129.24 10.20 129.24 10.88L129.24 10.88Z"></path></g><defs data-v-fde0c5aa=""><linearGradient data-v-fde0c5aa="" gradientTransform="rotate(25)" id="8ab346a9-8fed-422d-85fd-31fa6ec0700b" x1="0%" y1="0%" x2="100%" y2="0%"><stop data-v-fde0c5aa="" offset="0%" stop-color="#050922" stop-opacity="1"></stop><stop data-v-fde0c5aa="" offset="100%" stop-color="#6EE6C7" stop-opacity="1"></stop></linearGradient></defs><g data-v-fde0c5aa="" id="0fca63a9-0bdd-4cc6-8a90-e62e18164b59" stroke="none" fill="url(#8ab346a9-8fed-422d-85fd-31fa6ec0700b)" transform="matrix(0.6084686029088834,0,0,0.6084686029088834,35.740719779637814,131.44170761127907)"><path d="M35.068 33.454L53 30.5l-17.932-2.954 5.358-7.472-7.472 5.358L30 7.5l-2.954 17.932-7.472-5.358 5.358 7.472L7 30.5l17.932 2.954-5.358 7.472 7.472-5.358L30 53.5l2.954-17.932 7.472 5.358z"></path></g><!----></svg>